<svg viewBox="0 0 200 200" xmlns="http://www.w3.org/2000/svg">
    <!-- Pentagon with E-shaped sides (middle line is half length) -->
    <g id="pentagon-e-sides">
        <!-- Each side of the pentagon has an E pattern with shorter middle line -->
        <g transform="rotate(0, 100, 100) translate(0, -15)">
            <path d="M 70 65 L 130 65 L 130 70 L 75 70 L 75 77.5 L 110 77.5 L 110 82.5 L 75 82.5 L 75 90 L 130 90 L 130 95 L 70 95 Z" fill="#123f6dff"/>
        </g>
        <g transform="rotate(72, 100, 100) translate(0, -15)">
            <path d="M 70 65 L 130 65 L 130 70 L 75 70 L 75 77.5 L 110 77.5 L 110 82.5 L 75 82.5 L 75 90 L 130 90 L 130 95 L 70 95 Z" fill="#123f6dff"/>
        </g>
        <g transform="rotate(144, 100, 100) translate(0, -15)">
            <path d="M 70 65 L 130 65 L 130 70 L 75 70 L 75 77.5 L 110 77.5 L 110 82.5 L 75 82.5 L 75 90 L 130 90 L 130 95 L 70 95 Z" fill="#123f6dff"/>
        </g>
        <g transform="rotate(216, 100, 100) translate(0, -15)">
            <path d="M 70 65 L 130 65 L 130 70 L 75 70 L 75 77.5 L 110 77.5 L 110 82.5 L 75 82.5 L 75 90 L 130 90 L 130 95 L 70 95 Z" fill="#123f6dff"/>
        </g>
        <g transform="rotate(288, 100, 100) translate(0, -15)">
            <path d="M 70 65 L 130 65 L 130 70 L 75 70 L 75 77.5 L 110 77.5 L 110 82.5 L 75 82.5 L 75 90 L 130 90 L 130 95 L 70 95 Z" fill="#123f6dff"/>
        </g>
    </g>
    
    <!-- Central E -->
    <g id="central-e">
        <path d="M 90 85 L 110 85 L 110 90 L 95 90 L 95 97.5 L 108 97.5 L 108 102.5 L 95 102.5 L 95 110 L 110 110 L 110 115 L 90 115 Z" stroke="#3a7ec1ff" stroke-width="6"/>
    </g>
</svg>